<?xml version="1.0" encoding="utf-8"?>
<!-- Generator: Adobe Illustrator 16.0.0, SVG Export Plug-In . SVG Version: 6.00 Build 0)  -->
<!DOCTYPE svg PUBLIC "-//W3C//DTD SVG 1.1//EN" "http://www.w3.org/Graphics/SVG/1.1/DTD/svg11.dtd">
<svg version="1.1" id="Layer_1" xmlns="http://www.w3.org/2000/svg" xmlns:xlink="http://www.w3.org/1999/xlink" x="0px" y="0px"
	 width="612px" height="792px" viewBox="0 0 612 792" enable-background="new 0 0 612 792" xml:space="preserve">
<g>
	<path fill="none" stroke="#000000" stroke-linecap="round" stroke-linejoin="round" stroke-miterlimit="10" d="M378.822,380.503
		l5.153-7.52c0,0,5.969,5.828,8.691,11.351S396,398,396,398v2.333c0,0-2.671-6.911-8.551-13.702S378.822,380.503,378.822,380.503z"
		/>
	<path fill="none" stroke="#000000" stroke-linecap="round" stroke-linejoin="round" stroke-miterlimit="10" d="M111.667,262.337"/>
	<path fill="none" stroke="#000000" stroke-linecap="round" stroke-linejoin="round" stroke-miterlimit="10" d="M257.104,207.605
		c-13.88,2.415-27.22,6.4-39.829,11.773C306.678,236.073,375.383,304.997,390.4,354c-0.267,6.955-2.4,7-6.278,8.536
		c10.982,1.529,19.878,0.692,21.277-5.537C401.761,320.283,345.345,237.505,257.104,207.605z"/>
	<path fill="none" stroke="#000000" stroke-linecap="round" stroke-linejoin="round" stroke-miterlimit="10" d="M309.923,308.528
		c-4.684-9.021-7.797-13.348-24.689-27.174c-15.833-12.959-31.266-20.119-31.266-20.119s23.233,21.96,30.033,31.96
		c7.59,11.162,10.371,16.108,15.333,27.805c-21.425-22.708-24.067-25.489-47.806-50.936c-6.205-4.296-7.818,0.706-7.778,3.641
		c0.055,4.053-0.4,8.498-1.149,12.889c-20.652-14.838-23.16-16.982-42-25.4c-11.961-5.345-24.318-8.955-33.299-11.17
		c-6.977,6.201-13.479,12.924-19.431,20.12c9.42-0.493,20.174-0.839,26.731-0.344c10.72,0.81,23.052,4.245,33.6,8.2
		c13.855,5.196,34,17.2,41.797,26.003c1.4-5.2,3.801-7.202,3.801-7.202s20.436,14.827,30.902,23.83s17.914,18.659,25.298,30.57
		c-10.001,5.202-27.198-0.873-42-11.536c-20.602-15.063-19-31-19-31s-8.672-7.224-18.333-12.667
		c-6.385-3.597-22.333-6.333-22.333-6.333s14.374,10.124,22.468,18.934c6.8,7.4,9.601,13,12.401,19.2
		c-15.8-10.2-32.117-18.52-53.077-23.929c-17.324-4.471-33.36-3.564-40.321-3.025c-3.55,0.275-17.055,2.236-24.163,3.286
		c-3.983,7.893-7.406,16.115-10.22,24.615c10.877-3.297,32.142-9.454,40.179-9.747c7.889-0.287,37.855,2.197,43.398,2.999
		c16.602,2.401,49.666,18.666,59.333,25.333S282,360.601,300.8,362.172c6.4,0,15.2-5.505,15.2-5.505s6.334,3.862,16.666,5
		s29.001,0,29.001,0s-13.986-3.114-22.334-9.667C322,338.395,314.624,317.583,309.923,308.528z"/>
	<path fill="none" stroke="#000000" stroke-linecap="round" stroke-linejoin="round" stroke-miterlimit="10" d="M142.401,346
		c-15.805,5.004-29.496,9.737-33.907,11.276c-1.141,7.208-1.853,14.557-2.119,22.021c4.504-2.541,21.1-11.77,32.026-16.1
		c14.599-5.785,40.556-11.899,50-13.998c9-2,46.456-2.583,46.456-2.583s-3.924-1.817-28.056-4.817S161.667,339.9,142.401,346z"/>
	<path fill="none" stroke="#000000" stroke-linecap="round" stroke-linejoin="round" stroke-miterlimit="10" d="M126.802,391.61
		c-6.954,4.125-14.972,13.247-19.001,18.142c1.238,9.443,3.205,18.656,5.835,27.585c2.593-7.364,9.098-24.203,17.766-34.927
		c11.8-14.6,31.599-25.746,31.599-25.746S138.602,384.61,126.802,391.61z"/>
	<path fill="none" stroke="#000000" stroke-linecap="round" stroke-linejoin="round" stroke-miterlimit="10" d="M420.477,417.827
		c-4.987-21.827-17.975-41.664-17.975-41.664s8.272,29.324,6.667,48.176c-1.522,17.883-3.854,27.797-10.057,38.964
		c-5.502,9.905-18.362,25.062-18.362,25.062s-6.456-22.085-11.048-28.938c-11.348-16.938-18.107-24.867-36.099-42.029
		c-9.303-8.874-23.325-17.064-23.325-17.064s-0.003-3.53,7.722-4.333c-9.214-8.627-52.725-19.061-68.519-21.034
		c-15.881-1.983-42.607,2.901-54.756,12.583c-14.723,11.734-29.74,31.499-34.574,53.448c-4.527,20.552-6.463,55.451-6.992,66.776
		c11.339,12.538,24.406,23.479,38.82,32.466c-2.658-8.506-7.067-23.247-9.646-35.248c-2.63-12.244-4.598-38.036-2.332-57.074
		c2.481-20.844,19.538-51.413,43.999-55.593c20.27-3.463,39.618-0.736,54.268,3.675c14.389,4.333,39.707,20.64,48.883,29.835
		c15.133,15.163,21.833,25.805,28.04,37.221c7.638,14.048,21.123,51,21.123,51s18.331-13.532,38.43-48.022
		C422.806,452.2,423.063,429.149,420.477,417.827z"/>
	<path fill="none" stroke="#000000" stroke-linecap="round" stroke-linejoin="round" stroke-miterlimit="10" d="M244.667,548.331
		c-7.419-6.717-19.667-22.526-26-32.666S207.934,497.335,205,485.8s-4-26.135-4-26.135s-0.478,33.062,0.922,45.456
		s3.549,21.661,7.479,30.282c2.338,5.13,5.748,12.688,8.191,18.112c14.693,6.18,30.37,10.481,46.729,12.61
		C258.638,560.981,249.536,552.739,244.667,548.331z"/>
	<path fill="none" stroke="#000000" stroke-linecap="round" stroke-linejoin="round" stroke-miterlimit="10" d="M348.852,557.21
		c-1.604,0.072-3.174,0.08-4.651-0.007c-9.417-0.555-26.21-2.282-33.8-4.6c-16.538-5.05-20.8-6.601-33.067-13.611
		s-19.733-13.389-31-23.827s-20-21.5-20-21.5s10.919,21.5,16.144,29.811c4.364,6.942,15.537,19.326,25.189,28.522
		c5.02,4.783,13.953,11.083,20.771,15.656C309.624,567.604,329.956,563.923,348.852,557.21z"/>
</g>
</svg>
