<?xml version="1.0" encoding="utf-8"?>
<!-- Generator: Adobe Illustrator 16.0.0, SVG Export Plug-In . SVG Version: 6.00 Build 0)  -->
<!DOCTYPE svg PUBLIC "-//W3C//DTD SVG 1.1//EN" "http://www.w3.org/Graphics/SVG/1.1/DTD/svg11.dtd">
<svg version="1.1" id="Layer_1" xmlns="http://www.w3.org/2000/svg" xmlns:xlink="http://www.w3.org/1999/xlink" x="0px" y="0px"
	 width="612px" height="792px" viewBox="0 0 612 792" enable-background="new 0 0 612 792" xml:space="preserve">
<g>
	<path fill="none" stroke="#000000" d="M528.037,356.097l9.987-14.575c0,0,11.568,11.295,16.846,22
		c5.275,10.704,6.459,26.487,6.459,26.487v4.521c0,0-5.176-13.395-16.572-26.556S528.037,356.097,528.037,356.097z"/>
	<path fill="none" stroke="#000000" d="M292.132,21c-26.902,4.68-52.756,12.405-77.192,22.817
		c173.272,32.356,306.431,165.939,335.537,260.915c-0.517,13.479-4.652,13.566-12.169,16.543
		c21.286,2.964,38.526,1.342,41.239-10.73C572.494,239.382,463.152,78.95,292.132,21z"/>
	<path fill="none" stroke="#000000" d="M394.501,216.601c-9.077-17.482-15.111-25.87-47.852-52.667
		c-30.687-25.117-60.598-38.994-60.598-38.994s45.028,42.561,58.207,61.942c14.71,21.633,20.101,31.22,29.719,53.89
		c-41.525-44.01-46.645-49.4-92.654-98.719c-12.026-8.327-15.153,1.368-15.075,7.057c0.107,7.855-0.776,16.47-2.228,24.98
		c-40.026-28.757-44.888-32.914-81.4-49.229c-23.182-10.359-47.131-17.356-64.538-21.649c-13.521,12.018-26.124,25.048-37.66,38.995
		c18.257-0.956,39.099-1.625,51.809-0.666c20.776,1.569,44.677,8.226,65.122,15.893c26.852,10.07,65.896,33.335,81.007,50.398
		c2.713-10.078,7.367-13.958,7.367-13.958s39.607,28.737,59.893,46.186s34.72,36.164,49.03,59.248
		c-19.384,10.082-52.714-1.692-81.401-22.358c-39.928-29.192-36.824-60.081-36.824-60.081s-16.807-14.001-35.532-24.551
		c-12.375-6.972-43.284-12.274-43.284-12.274s27.858,19.622,43.546,36.695c13.179,14.343,18.608,25.196,24.036,37.212
		c-30.623-19.769-62.246-35.894-102.869-46.377c-33.576-8.665-64.657-6.908-78.147-5.862c-6.881,0.534-33.054,4.333-46.83,6.367
		c-7.719,15.297-14.354,31.232-19.808,47.708c21.082-6.39,62.294-18.323,77.873-18.891c15.289-0.556,73.368,4.259,84.111,5.813
		c32.176,4.654,96.258,36.177,114.995,49.099c18.736,12.922,45.871,25.714,82.307,28.76c12.404,0,29.459-10.67,29.459-10.67
		s12.276,7.485,32.301,9.69s56.208,0,56.208,0s-27.107-6.036-43.287-18.736C417.908,274.486,403.613,234.15,394.501,216.601z"/>
	<path fill="none" stroke="#000000" d="M69.824,289.227c-30.633,9.699-57.167,18.871-65.717,21.855
		c-2.21,13.97-3.59,28.214-4.107,42.68c8.729-4.924,40.895-22.812,62.071-31.203c28.294-11.211,78.602-23.063,96.906-27.13
		c17.443-3.876,90.038-5.006,90.038-5.006s-7.606-3.522-54.375-9.335C147.87,275.272,107.162,277.404,69.824,289.227z"/>
	<path fill="none" stroke="#000000" d="M39.59,377.623c-13.478,7.996-29.017,25.674-36.826,35.162
		c2.399,18.303,6.211,36.157,11.309,53.463c5.025-14.273,17.633-46.908,34.432-67.692c22.871-28.296,61.242-49.898,61.242-49.898
		S62.459,364.057,39.59,377.623z"/>
	<path fill="none" stroke="#000000" d="M608.768,428.436c-9.666-42.303-34.837-80.749-34.837-80.749s16.034,56.833,12.922,93.372
		c-2.951,34.658-7.469,53.873-19.492,75.516c-10.662,19.198-35.588,48.573-35.588,48.573s-12.513-42.804-21.412-56.086
		c-21.993-32.827-35.094-48.196-69.963-81.459c-18.03-17.198-45.207-33.073-45.207-33.073s-0.006-6.842,14.965-8.397
		c-17.857-16.721-102.188-36.943-132.798-40.767c-30.779-3.844-82.578,5.624-106.124,24.389
		c-28.535,22.743-57.639,61.049-67.009,103.589c-8.773,39.832-12.525,107.472-13.551,129.421
		c21.976,24.301,47.302,45.506,75.238,62.923c-5.151-16.485-13.698-45.056-18.694-68.315c-5.098-23.73-8.912-73.718-4.519-110.617
		c4.81-40.397,37.867-99.644,85.275-107.745c39.285-6.712,76.785-1.427,105.177,7.123c27.888,8.397,76.956,40.001,94.742,57.824
		c29.329,29.388,42.314,50.013,54.345,72.138c14.803,27.227,40.938,98.846,40.938,98.846s35.528-26.228,74.481-93.074
		C613.282,495.055,613.781,450.38,608.768,428.436z"/>
	<path fill="none" stroke="#000000" d="M268.026,681.368c-14.379-13.018-38.116-43.659-50.392-63.311
		c-12.275-19.652-20.802-35.526-26.487-57.882c-5.686-22.357-7.752-50.653-7.752-50.653s-0.927,64.078,1.787,88.101
		c2.713,24.021,6.878,41.98,14.494,58.69c4.532,9.942,11.141,24.592,15.875,35.104c28.478,11.978,58.86,20.313,90.566,24.44
		C295.105,705.887,277.463,689.912,268.026,681.368z"/>
	<path fill="none" stroke="#000000" d="M469.95,698.577c-3.108,0.14-6.152,0.155-9.016-0.013
		c-18.251-1.075-50.798-4.424-65.508-8.915c-32.053-9.787-40.314-12.793-64.088-26.381c-23.774-13.588-38.246-25.948-60.082-46.18
		s-38.762-41.67-38.762-41.67s21.163,41.67,31.289,57.776c8.458,13.455,30.112,37.457,48.819,55.28
		c9.729,9.271,27.044,21.48,40.256,30.344C393.922,718.724,433.328,711.587,469.95,698.577z"/>
</g>
</svg>
